<svg xmlns="http://www.w3.org/2000/svg" viewBox="0 0 256 256" width="256" height="256">
  <defs>
    <filter id="glow" x="-20%" y="-20%" width="140%" height="140%">
      <feGaussianBlur stdDeviation="3" result="blur" />
      <feComposite in="SourceGraphic" in2="blur" operator="over" />
    </filter>
  </defs>
  <rect width="256" height="256" rx="56" fill="#1e1e21" />
  <g transform="translate(64, 64) scale(5.333)" filter="url(#glow)">
    <svg viewBox="0 0 24 24" fill="none" stroke="#eab308" stroke-width="2.5" stroke-linecap="round" stroke-linejoin="round">
      <path d="m14.4 14.4-4.8-4.8" />
      <path d="M18.65 21.35a2 2 0 0 1-2.83 0l-5.66-5.66a2 2 0 0 1 0-2.83l.06-.06a2 2 0 0 1 2.83 0l5.66 5.66a2 2 0 0 1 0 2.83Z" />
      <path d="m21.5 21.5-1.4-1.4" />
      <path d="M3.9 3.9 2.5 2.5" />
      <path d="M6.4 7.56l-.06.06a2 2 0 0 0 0 2.83l5.66 5.66a2 2 0 0 0 2.83 0l.06-.06a2 2 0 0 0 0-2.83L9.23 7.56a2 2 0 0 0-2.83 0Z" />
    </svg>
  </g>
</svg>
